<svg width="130" height="39" viewBox="0 0 130 39" fill="none" xmlns="http://www.w3.org/2000/svg">
<path d="M15.5463 0.969727L8.29492 17.9833H49.9028L50.0267 0.969727H15.5463Z" fill="#E50019"/>
<path d="M22.81 12.4115L17.0397 12.3699C16.091 12.363 15.6201 11.8361 15.627 10.7891L15.6478 7.84939C15.6559 6.80188 16.1346 6.28188 17.0839 6.28939L21.6668 6.32232C22.6167 6.32925 23.0879 6.85619 23.0804 7.90312L23.0665 9.79593L17.3812 9.75519L17.3734 10.8143C17.3498 11.0217 17.3965 11.231 17.506 11.4088C17.5782 11.4698 17.6621 11.5155 17.7525 11.5429C17.843 11.5703 17.9381 11.5789 18.032 11.5683L21.9155 11.596C22.2735 11.5944 22.6306 11.5581 22.9816 11.4877L22.81 12.4115ZM17.3872 8.94485L21.3254 8.97345L21.3331 7.87799C21.3576 7.67052 21.3109 7.46089 21.2006 7.28346C21.1296 7.22249 21.0467 7.17686 20.9572 7.14942C20.8677 7.12197 20.7735 7.11332 20.6806 7.12398L18.0633 7.10579C17.9697 7.09367 17.8745 7.10081 17.7838 7.12674C17.693 7.15267 17.6085 7.19685 17.5355 7.25658C17.4231 7.43271 17.3733 7.64153 17.3942 7.84939L17.3872 8.94485Z" fill="white"/>
<path d="M24.1196 12.4201C24.2483 12.1535 24.3108 11.8598 24.3016 11.5639L24.3493 4.96507C24.3627 4.67273 24.3174 4.38067 24.2158 4.1062L26.0965 4.1192L26.0618 8.90407L29.0848 6.78247C29.2278 6.68493 29.3337 6.54204 29.3855 6.37686L31.2297 6.39074C30.9394 6.50401 30.6627 6.64936 30.4047 6.82407L28.4651 8.1986L31.306 11.8594C31.4819 12.0797 31.6761 12.2847 31.8867 12.4721L29.6403 12.4557L27.0819 9.23514L26.0549 9.94667L26.0428 11.5717C26.028 11.8667 26.0823 12.1611 26.2013 12.4314L24.1196 12.4201Z" fill="white"/>
<path d="M32.3492 7.31722L32.5139 6.39941L37.9375 6.43841C38.8874 6.44535 39.3586 6.97228 39.3511 8.01922L39.3242 11.6714C39.3114 11.9668 39.3678 12.2612 39.4889 12.5311L37.8335 12.519L37.6229 12.1584C37.5483 12.2694 37.4471 12.3599 37.3286 12.4218C37.2101 12.4837 37.078 12.515 36.9443 12.5129L33.371 12.4869C32.5477 12.4805 32.1392 11.9987 32.1456 11.0413L32.1551 9.82796C32.162 8.86191 32.5772 8.38178 33.4005 8.38755L37.0526 8.41441C37.2965 8.41441 37.449 8.3809 37.5103 8.31388C37.5826 8.20895 37.6157 8.08195 37.6039 7.95508V7.79735C37.628 7.63212 37.5876 7.46394 37.4912 7.32761C37.3879 7.26279 37.2659 7.23414 37.1445 7.24615L33.4179 7.21928C33.0594 7.21896 32.7017 7.25175 32.3492 7.31722ZM37.5952 9.22388L34.3625 9.20049C34.1158 9.20049 33.9592 9.25421 33.8928 9.36168C33.8194 9.50839 33.7868 9.67211 33.7983 9.83574L33.7897 11.0413C33.7719 11.2007 33.8021 11.3619 33.8763 11.5041C33.9451 11.6231 34.1011 11.6832 34.3443 11.6844L37.031 11.7034C37.1184 11.7147 37.2072 11.7049 37.29 11.6747C37.3728 11.6446 37.4472 11.595 37.5068 11.5301C37.5717 11.385 37.5982 11.2256 37.5839 11.0673L37.5952 9.22388Z" fill="white"/>
<path d="M40.5063 14.8824C40.6191 14.6108 40.6729 14.3183 40.664 14.0244L40.7126 7.31726C40.7255 7.01981 40.6626 6.72397 40.5297 6.45752L42.2102 6.46966L42.4199 6.84232C42.4968 6.71653 42.6045 6.61243 42.7328 6.53985C42.8731 6.48904 43.0223 6.46751 43.1713 6.47659L46.5011 6.49998C47.4469 6.50692 47.916 7.03385 47.9085 8.08079L47.8869 11.0205C47.8799 12.0675 47.4036 12.5875 46.4578 12.5805L43.2432 12.5571C43.0904 12.5631 42.938 12.5369 42.7959 12.4803C42.6538 12.4237 42.5252 12.338 42.4182 12.2287L42.4052 14.0365C42.3919 14.3299 42.4415 14.6228 42.5508 14.8954L40.5063 14.8824ZM42.4269 11.0691C42.4066 11.2546 42.449 11.4416 42.5473 11.6003C42.6098 11.6566 42.6835 11.699 42.7636 11.7247C42.8437 11.7504 42.9283 11.7588 43.0119 11.7494L45.5503 11.7676C45.6339 11.7782 45.7187 11.7709 45.7992 11.7463C45.8798 11.7216 45.9541 11.6802 46.0174 11.6246C46.1177 11.4675 46.1629 11.2815 46.1457 11.0959L46.1682 7.96726C46.1879 7.78648 46.144 7.60449 46.0443 7.45245C45.9815 7.3976 45.9081 7.35629 45.8286 7.33109C45.7491 7.30589 45.6653 7.29735 45.5824 7.30599L43.0439 7.28779C42.9612 7.27739 42.8772 7.28386 42.7971 7.3068C42.717 7.32974 42.6423 7.36867 42.5776 7.42125C42.4757 7.57441 42.4304 7.75828 42.4494 7.94126L42.4269 11.0691Z" fill="white"/>
<path d="M77.2236 15.2767C77.3397 15.2765 77.4547 15.2986 77.5625 15.3417C79.4998 16.0497 81.1622 17.3546 82.3101 19.0684C83.4047 20.8628 83.9537 22.937 83.89 25.038V25.1108C83.9115 26.6802 83.6242 28.2386 83.0442 29.6972C82.4984 31.0299 81.6519 32.2185 80.5707 33.1699C79.3298 34.2313 77.8814 35.0229 76.3179 35.4943C74.2828 36.1047 72.166 36.3991 70.0416 36.367H63.1256C62.8845 36.3668 62.6534 36.2709 62.4829 36.1005C62.3125 35.9301 62.2167 35.6989 62.2164 35.4579V20.1959C62.2173 19.9984 62.2821 19.8064 62.4011 19.6488C62.5201 19.4911 62.687 19.3763 62.8768 19.3214L76.9749 15.3122C77.0558 15.289 77.1395 15.2773 77.2236 15.2776V15.2767ZM77.2236 13.611C76.9854 13.6112 76.7483 13.6441 76.519 13.7089L62.4209 17.719C61.8821 17.8722 61.408 18.1969 61.0703 18.6439C60.7327 19.0909 60.5499 19.6357 60.5498 20.1959V35.4579C60.5498 36.141 60.8212 36.7962 61.3042 37.2792C61.7873 37.7623 62.4425 38.0336 63.1256 38.0336H70.0416C80.3722 38.0336 85.5549 32.7045 85.5549 25.1108V25.0406C85.5549 19.7539 83.0927 15.7456 78.1752 13.7956C77.8718 13.6752 77.5483 13.6135 77.2219 13.6136L77.2236 13.611Z" fill="#221F1C"/>
<path d="M45.7382 20.1699H51.6159L59.0901 38.0328H52.6542L51.7173 35.6512H45.5094L44.5976 38.0328H38.2632L45.7382 20.1699ZM50.2449 31.4453L48.6233 27.1379L47.0018 31.4453H50.2449Z" fill="#221F1C"/>
<path d="M102.088 20.2964H108.271L112.071 26.5295L115.872 20.2964H122.055V38.0327H116.151V29.2413L112.071 35.5497H111.97L107.891 29.2413V38.0327H102.088V20.2964Z" fill="#221F1C"/>
<path d="M87.4287 20.2964H100.255V25.1619H93.2605V26.9611H99.6218V31.2424H93.2605V33.1681H100.382V38.0327H87.433L87.4287 20.2964Z" fill="#221F1C"/>
<path d="M130 20.2964V23.9737H124.07V20.2964H130ZM124.07 38.0327H130V25.8205H124.07V38.0327Z" fill="#221F1C"/>
<path d="M69.305 31.5111C68.9268 31.5098 68.5644 31.3588 68.2972 31.0912C68.0299 30.8236 67.8793 30.4611 67.8784 30.0829V21.4301C67.8781 21.1795 67.9438 20.9333 68.0689 20.7162C68.194 20.4991 68.3741 20.3189 68.5911 20.1936C68.8081 20.0682 69.0542 20.0023 69.3047 20.0024C69.5553 20.0026 69.8014 20.0687 70.0183 20.1942L77.5123 24.5206C77.7296 24.6458 77.91 24.826 78.0355 25.0431C78.1609 25.2603 78.2269 25.5066 78.2269 25.7573C78.2269 26.0081 78.1609 26.2544 78.0355 26.4715C77.91 26.6886 77.7296 26.8689 77.5123 26.9941L70.0191 31.3187C69.8022 31.4447 69.5558 31.5111 69.305 31.5111Z" fill="#E50019"/>
<path d="M81.7187 9.79938L81.5454 8.72558L81.528 8.6181L83.1382 7.37705L81.164 6.65164C81.1599 6.30365 81.1336 5.95627 81.0852 5.61164C81.0741 5.46267 81.0281 5.31839 80.951 5.19042C80.874 5.06246 80.768 4.95439 80.6415 4.87494C80.515 4.7955 80.3715 4.74689 80.2227 4.73305C80.074 4.7192 79.9242 4.74051 79.7852 4.79524C79.2662 4.96408 78.792 5.24822 78.3984 5.62638L65.7191 0.966309C62.8808 3.28291 59.9385 5.67578 57.0265 8.04351L52.4106 11.7979C52.2269 11.947 52.0458 12.1004 51.8291 12.2806L57.9824 13.9915L57.8429 13.1187C57.8429 13.1187 61.1145 10.8246 62.2715 10.2587C64.4746 9.1562 66.9001 8.57079 69.3635 8.54704C71.7288 8.54482 74.0836 8.86289 76.3636 9.49257C76.7102 9.58271 77.0545 9.67862 77.3966 9.78031L77.719 9.86698L77.9591 11.3637L80.8468 9.13897L77.9591 11.3637L80.8477 9.14331L80.9707 9.91205L81.404 12.5987L80.3848 12.7625L80.774 15.1892L81.9978 14.0027L83.6799 14.7116L83.2926 12.2954L82.1563 12.4774L81.7187 9.79938ZM80.1102 5.58131C80.5374 5.76677 80.4334 6.38298 80.4334 6.38298L79.4211 6.00944C79.5797 5.74251 79.9333 5.50504 80.1127 5.58131H80.1102ZM80.4516 8.70131C80.3504 8.71807 80.2468 8.71409 80.1472 8.68961C80.0476 8.66513 79.9539 8.62067 79.8719 8.55891C79.79 8.49716 79.7215 8.4194 79.6705 8.33036C79.6195 8.24131 79.5872 8.14283 79.5754 8.0409C79.5583 7.93967 79.5618 7.83604 79.5855 7.73616C79.6093 7.63629 79.6529 7.54221 79.7138 7.45951C79.7746 7.37682 79.8515 7.3072 79.9397 7.25479C80.028 7.20238 80.126 7.16824 80.2277 7.15441C80.3294 7.14059 80.4329 7.14734 80.532 7.17429C80.631 7.20124 80.7237 7.24783 80.8044 7.31128C80.8851 7.37473 80.9522 7.45375 81.0018 7.54366C81.0514 7.63357 81.0823 7.73253 81.0929 7.83465C81.1084 7.9337 81.1041 8.03483 81.0801 8.13218C81.0561 8.22952 81.013 8.32113 80.9534 8.40169C80.8937 8.48225 80.8186 8.55014 80.7325 8.60143C80.6463 8.65272 80.5508 8.68637 80.4516 8.70044V8.70131Z" fill="#221F1C"/>
<path d="M76.7329 10.5317C76.6696 10.5092 76.5822 10.4814 76.4634 10.445C74.7911 9.93749 73.0699 9.60749 71.3284 9.46051C69.5045 9.34166 67.673 9.49146 65.8927 9.90511C63.4412 10.5531 61.1532 11.7087 59.1769 13.2972C59.0902 13.3553 59.0269 13.4013 58.9775 13.4385L59.5287 16.8766L76.9548 11.9201L76.7329 10.5317Z" fill="#D70022"/>
<path d="M7.47415 20.1699H13.3519L20.8269 38.0328H14.391L13.4541 35.6512H7.24532L6.33359 38.0328H0L7.47415 20.1699ZM11.9808 31.4453L10.3593 27.1379L8.73776 31.4453H11.9808Z" fill="#221F1C"/>
<path d="M21.5635 20.2964H27.4923V26.9351L32.5346 20.2964H39.4263L33.2444 27.9993L39.5528 38.0327H32.4843L29.0125 32.4081L27.4923 34.2575V38.0327H21.5635V20.2964Z" fill="#221F1C"/>
</svg>
