<svg width="24" height="24" viewBox="0 0 24 24" fill="none" xmlns="http://www.w3.org/2000/svg">
<path d="M21.696 9.85215C21.696 8.82215 21.296 7.85215 20.566 7.13215C20.046 6.61215 19.396 6.26215 18.696 6.11215V2.85215C18.696 2.50215 18.476 2.18215 18.146 2.05215C17.816 1.93215 17.436 2.02215 17.206 2.29215C15.786 3.91215 12.366 5.00215 8.67602 5.00215H6.84602C5.72602 5.00215 4.63602 5.39215 3.77602 6.09215C2.91602 6.80215 2.31602 7.79215 2.09602 8.88215C1.87602 9.97215 2.03602 11.1222 2.55602 12.1122C3.00602 12.9822 3.72602 13.6722 4.58602 14.1222L6.62602 19.9622C6.83602 20.5422 7.23602 21.0322 7.76602 21.3422C8.16602 21.5722 8.62602 21.6922 9.07602 21.6922C9.22602 21.6922 9.37602 21.6822 9.51602 21.6522C10.116 21.5522 10.676 21.2322 11.066 20.7622C11.466 20.2922 11.676 19.6922 11.676 19.0822V14.9522C14.116 15.3622 16.166 16.2422 17.186 17.4022C17.346 17.5922 17.586 17.6922 17.826 17.6922C17.926 17.6922 18.026 17.6722 18.126 17.6422C18.456 17.5222 18.676 17.2022 18.676 16.8422V13.5922C19.376 13.4322 20.026 13.0922 20.546 12.5622C21.276 11.8322 21.676 10.8722 21.676 9.84215L21.696 9.85215ZM9.99602 14.7522V19.0922C9.99602 19.3022 9.91602 19.5122 9.78602 19.6722C9.65602 19.8322 9.45602 19.9422 9.24602 19.9822C9.03602 20.0222 8.81602 19.9822 8.63602 19.8722C8.44602 19.7622 8.30602 19.5922 8.23602 19.4022L6.59602 14.6922C6.68602 14.6922 6.76602 14.6922 6.85602 14.6922H8.68602C9.10602 14.6922 9.53602 14.7122 10.006 14.7422L9.99602 14.7522ZM16.996 15.0322C14.986 13.7522 11.986 12.9922 8.67602 12.9922H6.84602C6.40602 12.9822 6.00602 12.9122 5.61602 12.7422C4.94602 12.4622 4.39602 11.9522 4.05602 11.3122C3.71602 10.6722 3.61602 9.93215 3.75602 9.22215C3.89602 8.51215 4.28602 7.87215 4.84602 7.41215C5.40602 6.95215 6.11602 6.70215 6.83602 6.70215H8.66602C11.976 6.70215 14.976 5.95215 16.986 4.66215V15.0422L16.996 15.0322ZM19.366 11.3622C19.166 11.5622 18.946 11.7122 18.696 11.8222V7.87215C18.946 7.98215 19.166 8.13215 19.366 8.33215C19.776 8.74215 19.996 9.28215 19.996 9.85215C19.996 10.4222 19.776 10.9622 19.366 11.3722V11.3622Z" fill="#0E4D91"/>
</svg>
