<svg width="130" height="49" viewBox="0 0 130 49" fill="none" xmlns="http://www.w3.org/2000/svg">
<path d="M75.8916 38.3265H63.4351C61.3836 38.3265 60.3579 37.2228 60.3579 35.0156V28.8167C60.3579 26.6095 61.3836 25.5059 63.4351 25.5059H73.3295C75.381 25.5059 76.4067 26.6095 76.4067 28.8167V32.8057H64.1315V35.039C64.0832 35.4784 64.1876 35.9211 64.4272 36.2927C64.5855 36.4209 64.768 36.5159 64.9638 36.5721C65.1596 36.6283 65.3648 36.6445 65.567 36.6198H73.9455C74.7179 36.6104 75.4878 36.5288 76.2449 36.3758L75.8916 38.3265ZM64.1315 31.1013H72.6349V28.7888C72.6827 28.3503 72.5783 27.9086 72.3391 27.538C72.1836 27.4104 72.0038 27.3157 71.8107 27.2594C71.6176 27.203 71.4151 27.1864 71.2154 27.2103H65.5658C65.3636 27.1854 65.1584 27.2017 64.9626 27.258C64.7667 27.3143 64.5843 27.4095 64.4261 27.538C64.1869 27.9086 64.0825 28.3503 64.1303 28.7888L64.1315 31.1013Z" fill="#221F1C"/>
<path d="M78.7163 38.3265C78.9909 37.7642 79.1219 37.1425 79.0975 36.5172V22.6053C79.1214 21.9879 79.0186 21.3722 78.7955 20.796H82.8552V30.8825L89.3464 26.3652C89.6519 26.1594 89.8788 25.8564 89.9903 25.5053H93.9713C93.3475 25.7517 92.7526 26.0659 92.1974 26.4421L88.0323 29.3684L94.2209 37.0426C94.6037 37.506 95.0258 37.9354 95.4826 38.3259H90.6343L85.0628 31.5754L82.8552 33.0901V36.5166C82.8283 37.1393 82.9499 37.7595 83.2102 38.3259L78.7163 38.3265Z" fill="#221F1C"/>
<path d="M96.4022 27.444L96.7441 25.5065H108.452C110.503 25.5065 111.528 26.6101 111.526 28.8173V36.5178C111.502 37.1417 111.628 37.7622 111.894 38.3271H108.32L107.86 37.5697C107.698 37.8063 107.481 37.9992 107.226 38.1313C106.972 38.2634 106.689 38.3306 106.402 38.3271H98.6885C96.9098 38.3271 96.0206 37.3175 96.021 35.2983V32.7339C96.021 30.698 96.9102 29.6799 98.6885 29.6795H106.572C107.098 29.6795 107.427 29.6068 107.558 29.4613C107.711 29.2404 107.781 28.9722 107.755 28.7045V28.3706C107.803 28.0213 107.714 27.6668 107.505 27.3824C107.28 27.247 107.017 27.1884 106.756 27.2155H98.7147C97.9386 27.2218 97.1646 27.2983 96.4022 27.444ZM107.755 31.3834H100.778C100.243 31.3834 99.9059 31.4991 99.7661 31.7304C99.6094 32.0395 99.5412 32.3857 99.5689 32.7311V35.2721C99.5335 35.6098 99.6023 35.9502 99.7661 36.2477C99.915 36.4954 100.252 36.6194 100.778 36.6198H106.572C106.76 36.6428 106.951 36.6211 107.129 36.5565C107.307 36.4918 107.468 36.386 107.598 36.2477C107.734 35.9418 107.789 35.6055 107.755 35.2721L107.755 31.3834Z" fill="#221F1C"/>
<path d="M114.128 43.2677C114.368 42.6955 114.48 42.0778 114.456 41.4578V27.3151C114.479 26.6869 114.339 26.0635 114.048 25.5059H117.675L118.135 26.2888C118.3 26.0212 118.53 25.8003 118.805 25.6472C119.108 25.5378 119.429 25.4897 119.751 25.5059H126.938C128.979 25.5059 129.999 26.6095 130 28.8167V35.0156C130 37.2228 128.979 38.3265 126.938 38.3265H120C119.672 38.342 119.344 38.2896 119.036 38.1726C118.729 38.0557 118.449 37.8766 118.214 37.6466V41.4578C118.19 42.0778 118.302 42.6955 118.542 43.2677H114.128ZM118.214 35.1951C118.174 35.587 118.269 35.9808 118.483 36.3115C118.62 36.43 118.78 36.5186 118.953 36.5717C119.126 36.6248 119.308 36.6412 119.488 36.6198H124.967C125.147 36.6412 125.329 36.6248 125.502 36.5717C125.676 36.5186 125.836 36.43 125.973 36.3115C126.187 35.9809 126.282 35.5871 126.242 35.1951V28.599C126.281 28.2169 126.183 27.8332 125.966 27.5163C125.829 27.4008 125.67 27.3145 125.498 27.2626C125.326 27.2107 125.146 27.1942 124.967 27.2143H119.488C119.31 27.1936 119.129 27.2084 118.957 27.258C118.784 27.3076 118.623 27.391 118.483 27.5032C118.267 27.8259 118.171 28.2146 118.214 28.6007V35.1951Z" fill="#221F1C"/>
<path d="M9.63638 8.52352C9.0141 8.17819 8.3958 7.81063 7.77979 7.43396L6.81104 8.08872C7.1803 8.64547 7.60883 9.27631 8.10746 9.99204C12.0252 15.5835 19.7787 25.3382 28.4137 29.0252L50.8825 14.4369C50.8825 14.4369 28.9191 19.2197 9.63638 8.52352Z" fill="#0093C5"/>
<path opacity="0.9" d="M8.57308 9.64159C8.02602 9.1065 7.48693 8.55431 6.95469 7.98901L5.94434 8.67284C6.14094 9.25751 6.36261 9.90088 6.62417 10.6303C9.33725 18.194 15.5487 32.8917 24.9513 40.118L56.0802 29.6327C56.0802 29.6327 28.0154 28.6708 8.57308 9.64159Z" fill="#3CB8E1"/>
<path d="M5.28031 8.26996C6.78373 8.26996 8.0025 7.05119 8.0025 5.54776C8.0025 4.04433 6.78373 2.82556 5.28031 2.82556C3.77688 2.82556 2.55811 4.04433 2.55811 5.54776C2.55811 7.05119 3.77688 8.26996 5.28031 8.26996Z" fill="#A50B1A"/>
<path opacity="0.9" d="M7.37795 10.3875C7.01438 9.74301 6.66335 9.08539 6.31859 8.42151L5.16406 9.20221C5.188 9.6997 5.21592 10.228 5.25239 10.8229C5.79375 19.5622 7.89025 37.8944 16.0261 48.7302L52.9026 46.5397C52.9026 46.5397 22.4233 37.1086 7.37795 10.3875Z" fill="#92D7EE"/>
<path d="M5.278 0.269775C4.23411 0.269775 3.21366 0.579325 2.3457 1.15928C1.47774 1.73923 0.801246 2.56355 0.401766 3.52798C0.00228703 4.4924 -0.102235 5.55363 0.101418 6.57747C0.30507 7.6013 0.807753 8.54175 1.54589 9.27989C2.28404 10.018 3.22448 10.5207 4.24832 10.7244C5.27215 10.928 6.33338 10.8235 7.29781 10.424C8.26224 10.0245 9.08655 9.34804 9.6665 8.48008C10.2465 7.61211 10.556 6.59167 10.556 5.54778C10.556 4.14796 9.99993 2.80548 9.01011 1.81567C8.0203 0.825848 6.67781 0.269775 5.278 0.269775ZM5.278 8.26998C4.7396 8.26998 4.2133 8.11032 3.76563 7.8112C3.31797 7.51208 2.96906 7.08694 2.76302 6.58952C2.55698 6.0921 2.50307 5.54476 2.60811 5.0167C2.71315 4.48865 2.97241 4.0036 3.35312 3.62289C3.73382 3.24219 4.21887 2.98292 4.74693 2.87788C5.27498 2.77285 5.82233 2.82676 6.31974 3.0328C6.81716 3.23883 7.24231 3.58774 7.54143 4.0354C7.84055 4.48307 8.0002 5.00938 8.0002 5.54778C8.0002 6.26975 7.7134 6.96215 7.20289 7.47267C6.69238 7.98318 5.99997 8.26998 5.278 8.26998Z" fill="#CF9B99"/>
</svg>
