<svg width="24" height="24" viewBox="0 0 24 24" fill="none" xmlns="http://www.w3.org/2000/svg">
<path d="M22.213 13.0381C20.3401 12.9193 18.4856 12.611 16.6807 12.1182L20.85 9.52265C21.0268 9.42177 21.1585 9.26206 21.2197 9.07412C21.281 8.88619 21.2677 8.68323 21.1822 8.50415C21.1042 8.32726 20.9647 8.18157 20.7873 8.09176C20.6098 8.00194 20.4054 7.97353 20.2086 8.01132C15.8732 8.75425 11.4048 8.25117 7.36846 6.5657C7.38599 6.3982 7.38599 6.22944 7.36846 6.06193C7.37197 5.47212 7.19623 4.89403 6.8626 4.39792C6.52896 3.90181 6.05178 3.50904 5.48907 3.26735C4.92636 3.02566 4.30234 2.94545 3.69284 3.03648C3.08335 3.1275 2.51463 3.38584 2.05581 3.78009C1.59699 4.17434 1.26782 4.68753 1.1083 5.25729C0.948784 5.82705 0.965794 6.42884 1.15726 6.98953C1.34873 7.55022 1.70641 8.04566 2.18684 8.41565C2.66726 8.78563 3.24974 9.01422 3.86349 9.07363C4.19566 12.4577 5.11199 17.4516 7.64335 20.6714C7.72274 20.7741 7.82638 20.8573 7.94581 20.9144C8.06523 20.9715 8.19708 21.0008 8.3306 21L21.0905 20.2772C21.2916 20.2657 21.482 20.187 21.6286 20.0549C21.7752 19.9228 21.8685 19.7456 21.8923 19.5544C21.9154 19.3635 21.8687 19.1709 21.7601 19.0092C21.6515 18.8475 21.4878 18.7267 21.2967 18.6673C19.6065 18.1191 17.9761 17.4149 16.4287 16.5646L22.4192 14.648C22.6082 14.5842 22.7684 14.4601 22.8727 14.2965C22.9771 14.1329 23.0192 13.9398 22.9919 13.75C22.9626 13.5657 22.8703 13.3959 22.7294 13.2671C22.5885 13.1383 22.4069 13.0578 22.213 13.0381ZM16.9212 10.0155L14.6304 11.4611C14.218 11.3187 13.8171 11.1544 13.4162 10.9902C11.9734 10.3558 10.5699 9.64282 9.21257 8.8546L8.72004 8.50415C11.3595 9.39656 14.1239 9.90599 16.9212 10.0155V10.0155ZM2.7868 6.06193C2.7868 5.78421 2.87309 5.51276 3.0347 5.282C3.19631 5.05124 3.42597 4.87158 3.69454 4.76581C3.96311 4.66004 4.25848 4.63293 4.54319 4.68791C4.8279 4.74289 5.08912 4.87749 5.2937 5.07464C5.49827 5.27178 5.637 5.52258 5.69227 5.79522C5.74754 6.06787 5.71687 6.35006 5.60414 6.60601C5.49141 6.86196 5.30171 7.08013 5.05911 7.23283C4.8165 7.38554 4.53192 7.46591 4.24147 7.46374C4.04947 7.46375 3.85937 7.42741 3.68213 7.35683C3.50489 7.28625 3.34402 7.18282 3.20879 7.0525C3.07356 6.92219 2.96665 6.76756 2.89422 6.59755C2.82179 6.42754 2.78528 6.2455 2.7868 6.06193V6.06193ZM8.75441 19.3353C6.79575 16.5536 5.97105 12.3591 5.65033 9.52265C5.91378 9.90596 6.20013 10.2674 6.48649 10.6178L6.70411 10.8697C6.94465 11.1544 7.18519 11.4392 7.44863 11.7239L7.80371 12.1072C8.0328 12.3372 8.25042 12.5782 8.47951 12.7972L8.91477 13.2024C9.13239 13.4214 9.37293 13.6295 9.61347 13.8376L10.0716 14.2428L10.8276 14.8561L11.2972 15.2175C11.5836 15.4365 11.8814 15.6446 12.1792 15.8527L12.603 16.1484C13.0497 16.4441 13.5079 16.7507 13.9775 17.0355C15.0548 17.6927 16.1716 18.2887 17.3221 18.8206L8.75441 19.3353ZM14.5617 15.4584L14.218 15.2394L13.0726 14.4837L12.5228 14.1004C12.1792 13.8486 11.847 13.5857 11.5263 13.3229C11.2056 13.06 11.2056 13.0819 11.0567 12.9505C10.6443 12.6001 10.2434 12.2496 9.91128 11.8554L9.77383 11.7896C9.36148 11.3844 8.97204 10.9683 8.62841 10.5412L8.51387 10.4207L9.17821 10.804L9.5562 11.034C10.2205 11.4063 10.9192 11.7458 11.6294 12.1291L12.0647 12.3153C12.7977 12.6329 13.5652 12.9286 14.3555 13.1915C15.6678 13.6441 17.0111 14.01 18.3759 14.2866L14.5617 15.4584Z" fill="#2256A5"/>
</svg>
