<svg width="82" height="150" viewBox="0 0 82 150" fill="none" xmlns="http://www.w3.org/2000/svg">
<g clip-path="url(#clip0_252_3436)">
<path d="M72.8184 9.28931H9.28931V72.5249H72.8184V9.28931Z" fill="white"/>
<path d="M32.0533 15.5431H43.2813L32.0533 62.8604H20.9312L32.0533 15.5431Z" fill="#17447A"/>
<path d="M21.109 62.8605L43.2812 34.1411H54.0618L32.5246 62.8605" fill="#E52027"/>
<path d="M36.8783 42.8529H47.707L60.8881 66.271H49.8237L36.8783 42.8529Z" fill="#4681C2"/>
<path d="M44.9409 31.5481C45.3402 33.3184 49.0059 34.0063 53.119 33.0779C57.2321 32.1494 60.258 29.9654 59.8539 28.1951C59.4498 26.4248 55.7889 25.7369 51.6758 26.6653C47.5627 27.5938 44.5465 29.7778 44.9409 31.5481Z" fill="#E52027"/>
<path d="M0 0V81.8191H81.8191V0H0ZM77.172 77.172H4.64706V4.64706H77.172V77.172Z" fill="white"/>
<path d="M81.8191 147.282H0V150H81.8191V147.282Z" fill="#E52027"/>
<path d="M55.9138 106.767V119.284H64.9434V116.86H59.1417V106.767H55.9138Z" fill="white"/>
<path d="M24.0001 111.347H19.2328V106.767H16.0049V119.284H19.2328V113.766H24.0001V119.284H27.2281V106.767H24.0001V111.347Z" fill="white"/>
<path d="M39.2305 116.754H43.8631L44.7387 119.304H48.0724L43.4494 106.796H39.7308L35.1174 119.304H38.3694L39.2305 116.754ZM41.5492 109.971L43.0886 114.459H40.005L41.5492 109.971Z" fill="white"/>
<path d="M72.7654 119.284H81.819V116.86H75.9741V113.766H81.4005V111.347H75.9741V109.187H81.819V106.767H72.7654V119.284Z" fill="white"/>
<path d="M7.33139 119.304H0V117.081H2.04932V108.985H0V106.767H7.33139V108.985H5.29168V117.062H7.34582L7.33139 119.304ZM2.11186 105.353H5.21952V103.053H2.11186V105.353Z" fill="white"/>
<path d="M25.3472 97.2035H29.9798L30.8505 99.7339H34.1843L29.5613 87.2263H25.8475L21.2245 99.7339H24.4765L25.3472 97.2035ZM27.6659 90.4398L29.2053 94.9233H26.1265L27.6659 90.4398Z" fill="white"/>
<path d="M3.22793 95.6494L3.97838 94.7257L7.71624 99.7336H11.685L6.54726 93.0083L11.4397 87.2163H7.697L3.22793 92.888V87.2163H0V99.7336H3.22793V95.6494Z" fill="white"/>
<path d="M55.2402 99.7336H58.4537V87.2163H54.7062L51.8968 93.4942L49.0826 87.2163H45.3303V99.7336H48.3754V91.3534L50.6942 96.7895H52.9215L55.2402 91.3534V99.7336Z" fill="white"/>
<path d="M72.0871 98.757C73.0492 99.5796 74.4154 99.9933 76.2435 99.9933C78.0715 99.9933 79.4666 99.5796 80.4046 98.757C81.3427 97.9344 81.819 96.751 81.819 95.2019V87.2163H78.5718V95.024C78.6354 95.7262 78.4366 96.4272 78.0138 96.9915C77.779 97.2135 77.4998 97.3831 77.1947 97.4892C76.8895 97.5954 76.5653 97.6356 76.2435 97.6073C75.9194 97.638 75.5926 97.5966 75.2865 97.4859C74.9804 97.3753 74.7027 97.1982 74.4731 96.9675C74.0702 96.4103 73.8761 95.7291 73.9247 95.0432V87.2163H70.6824V95.2116C70.6824 96.751 71.1506 97.9328 72.0871 98.757Z" fill="white"/>
<path d="M11.4397 126.365H7.697L3.22793 132.032V126.365H0V138.883H3.22793V134.798L3.97838 133.87L7.71624 138.883H11.685L6.54726 132.157L11.4397 126.365Z" fill="white"/>
<path d="M20.9262 134.173C20.9884 134.876 20.7879 135.577 20.3634 136.141C20.1293 136.362 19.851 136.532 19.5466 136.638C19.2423 136.744 18.919 136.784 18.5979 136.756C18.2773 136.787 17.954 136.748 17.6501 136.641C17.3462 136.535 17.0689 136.364 16.8372 136.141C16.4342 135.583 16.2401 134.902 16.2888 134.216V126.365H13.032V134.361C13.032 135.9 13.513 137.084 14.4415 137.906C15.3699 138.729 16.765 139.142 18.5979 139.142C20.4307 139.142 21.8162 138.729 22.7591 137.906C23.7019 137.084 24.1686 135.895 24.1686 134.351V126.365H20.9262V134.173Z" fill="white"/>
<path d="M61.196 132.643L58.3818 126.365H54.6295V138.883H57.6746V130.498L59.9934 135.939H62.2207L64.5442 130.498V138.883H67.7529V126.365H64.0054L61.196 132.643Z" fill="white"/>
<path d="M48.3708 134.173C48.4312 134.875 48.2327 135.575 47.8128 136.141C47.5775 136.362 47.2982 136.531 46.9932 136.637C46.6882 136.743 46.3642 136.784 46.0425 136.756C45.718 136.79 45.3901 136.753 45.0818 136.647C44.7734 136.54 44.4921 136.367 44.2577 136.141C43.8548 135.583 43.6606 134.902 43.7093 134.216V126.365H40.4766V134.361C40.4766 135.9 40.9576 137.084 41.8861 137.906C42.8145 138.729 44.2096 139.142 46.0425 139.142C47.8753 139.142 49.2608 138.729 50.2036 137.906C51.1465 137.084 51.6132 135.895 51.6132 134.351V126.365H48.3708V134.173Z" fill="white"/>
<path d="M36.8976 132.066C37.3462 131.399 37.5657 130.603 37.523 129.8C37.5439 129.215 37.4006 128.635 37.1093 128.126C36.8281 127.678 36.4417 127.304 35.9836 127.039C35.5269 126.757 35.018 126.571 34.4875 126.491C33.8502 126.4 33.2069 126.358 32.5632 126.366H27.1849V138.873H30.3984V134.284H31.8945L35.3005 138.873H39.2404L35.0647 133.509C35.7833 133.183 36.4122 132.688 36.8976 132.066ZM34.0497 131.041C33.9371 131.269 33.7722 131.467 33.5686 131.619C33.31 131.805 33.0091 131.924 32.6931 131.965C32.2638 132.018 31.8315 132.042 31.399 132.037H30.3984V128.67H31.5674C31.9523 128.67 32.2938 128.67 32.5825 128.699C32.8447 128.71 33.1032 128.766 33.3473 128.862C33.6238 128.963 33.8579 129.155 34.0112 129.406C34.1466 129.653 34.2131 129.932 34.2036 130.214C34.215 130.498 34.1624 130.781 34.0497 131.041Z" fill="white"/>
<path d="M78.5718 134.173C78.6354 134.875 78.4366 135.576 78.0138 136.141C77.779 136.363 77.4998 136.532 77.1947 136.638C76.8895 136.745 76.5653 136.785 76.2435 136.756C75.9195 136.786 75.5929 136.745 75.2869 136.634C74.9809 136.524 74.703 136.347 74.4731 136.117C74.0702 135.559 73.8761 134.878 73.9247 134.192V126.365H70.6824V134.361C70.6824 135.9 71.1506 137.082 72.0871 137.906C73.0492 138.729 74.4154 139.142 76.2435 139.142C78.0715 139.142 79.4666 138.729 80.4046 137.906C81.3427 137.084 81.819 135.895 81.819 134.351V126.365H78.5718V134.173Z" fill="white"/>
</g>
<defs>
<clipPath id="clip0_252_3436">
<rect width="81.8191" height="150" fill="white"/>
</clipPath>
</defs>
</svg>
