<svg xmlns="http://www.w3.org/2000/svg" xmlns:xlink="http://www.w3.org/1999/xlink" width="1920" height="440" fill="none" xmlns:v="https://vecta.io/nano"><style><![CDATA[.B{stroke-opacity:.1}]]></style><g clip-path="url(#B)"><path fill="url(#A)" d="M0 0h1920v440H0z"/><g clip-path="url(#C)" stroke="#84cee5" stroke-miterlimit="10" class="B"><path d="M-36.779-68.46l8.61 84.91 84.9-8.61-8.61-84.9-84.9 8.6zm88.2 72l-75.25 7.63-7.63-75.26 75.26-7.66 7.62 75.29zm-140.03 46.37l8.6 84.9 84.9-8.61-8.6-84.9-84.9 8.61zm88.19 72l-75.25 7.63-7.63-75.3 75.3-7.63 7.58 75.3z"/><use xlink:href="#D"/><path d="M14.25 216.67l20-32.13 11.19-1.14-19.34 32.07"/><path d="M28.51 194.25l11.24-1.14L55.89 216l-11.48 1.2-15.9-22.95zm7.18-12.58c.6 1.8 4.48 2.12 8.66.73s7.08-4 6.48-5.78-4.47-2.12-8.65-.73-7.09 3.98-6.49 5.78zm-49.95-28.01l8.6 84.9 84.9-8.6-8.6-84.9-84.9 8.6zm88.19 72l-75.26 7.63L-9 158l75.26-7.62 7.67 75.28zM89.59-81.26l8.6 84.9L183.09-5l-8.6-84.9-84.9 8.64zm88.2 72l-75.26 7.59-7.63-75.26 75.26-7.63 7.63 75.3zM72.65 49.85l11.65-1.18L77.62 99l-11.54 1.17 6.57-50.32z"/><path d="M66.27 100.1L86.26 68l11.18-1.13L78.11 98.9"/><path d="M80.529 77.68l11.23-1.14 16.15 22.92-11.48 1.17-15.9-22.95zm7.181-12.57c.6 1.8 4.47 2.12 8.65.73s7.079-4 6.49-5.78-4.48-2.13-8.66-.73-7.08 3.97-6.48 5.78zM37.75 37.1l8.61 84.9 84.9-8.61-8.61-84.9-84.9 8.61zm88.2 72l-75.25 7.59-7.63-75.25 75.25-7.64 7.63 75.3zm21.051 44.51l11.66-1.18-6.66 50.28-11.54 1.17 6.54-50.27z"/><path d="M140.611 203.86l20-32.13 11.19-1.14-19.33 32.07"/><use xlink:href="#E"/><path d="M162.061 168.86c.6 1.8 4.47 2.13 8.65.73s7.08-4 6.48-5.78-4.47-2.12-8.65-.72-7.09 3.97-6.48 5.77zm-49.959-28.01l8.61 84.9 84.9-8.6-8.61-84.9-84.9 8.6zm88.2 72l-75.3 7.59-7.63-75.25 75.26-7.63 7.67 75.29zm-1.301-175.8l11.65-1.18-6.65 50.28-11.54 1.17 6.54-50.27z"/><path d="M192.631 87.29l20-32.13 11.17-1.16-19.33 32.09"/><use xlink:href="#F"/><use xlink:href="#G"/><path d="M164.121 24.29l8.6 84.9 84.9-8.6-8.62-84.9-84.88 8.6zm88.2 72l-75.26 7.63-7.63-75.26 75.26-7.66 7.63 75.29zm21.04 44.51l11.64-1.18-6.68 50.28-11.54 1.17 6.58-50.27z"/><use xlink:href="#H"/><path d="M281.242 168.63l11.24-1.14 16.14 22.92-11.48 1.16-15.9-22.94zm7.178-12.58c.6 1.8 4.47 2.13 8.65.73s7.09-4 6.49-5.77-4.48-2.13-8.66-.73-7.08 3.97-6.48 5.77zM238.471 128l8.6 84.91 84.9-8.61-8.61-84.9-84.89 8.6zm88.2 72l-75.27 7.63-7.63-75.26 75.23-7.62 7.67 75.25zm-1.3-175.76l11.63-1.18-6.68 50.27-11.51 1.17 6.56-50.26z"/><path d="M319 74.49l20-32.14 11.19-1.13-19.35 32.07"/><path d="M333.26 52.07l11.23-1.14 16.14 22.91L349.15 75l-15.89-22.93zm7.17-12.58c.6 1.8 4.48 2.13 8.66.73s7.08-4 6.48-5.77-4.47-2.13-8.65-.73-7.09 3.97-6.49 5.77zm-49.95-28.01l8.61 84.9L384 87.77l-8.61-84.9-84.91 8.61zm88.2 72l-75.26 7.63-7.63-75.26 75.26-7.62 7.63 75.25z"/><use xlink:href="#I"/><path d="M393.34 178.24l20-32.13 11.17-1.11-19.32 32"/><path d="M407.6 155.82l11.24-1.14L435 177.6l-11.48 1.16-15.92-22.94zm7.18-12.58c.6 1.8 4.48 2.13 8.66.73s7.08-4 6.48-5.77-4.47-2.13-8.65-.73-7.09 3.97-6.49 5.77zm-49.95-28l8.6 84.9 84.9-8.6-8.6-84.9-84.9 8.6zm88.2 72l-75.26 7.63-7.63-75.26 75.26-7.63 7.63 75.26zm-1.29-175.81l11.65-1.18-6.67 50.28-11.54 1.17 6.56-50.27z"/><path d="M445.359 61.68l20-32.13 11.18-1.14-19.34 32.07"/><path d="M459.619 39.26l11.24-1.14L486.999 61l-11.48 1.2-15.9-22.94z"/><use xlink:href="#J"/><path d="M416.84-1.33l8.6 84.9 84.9-8.6-8.61-84.9-84.89 8.6zm88.2 72l-75.26 7.62L422.15 3l75.26-7.63 7.63 75.3zm21.051 44.52l11.65-1.19-6.68 50.27-11.54 1.17 6.57-50.25z"/><path d="M519.701 165.43l20-32.13 11.19-1.13-19.33 32.06"/><path d="M534.002 143l11.23-1.14 16.14 22.92-11.51 1.22-15.86-23zm7.149-12.56c.6 1.8 4.47 2.12 8.65.72s7.08-4 6.48-5.77-4.47-2.13-8.65-.73-7.09 3.97-6.48 5.78zm-49.96-28.01l8.6 84.9 84.9-8.61-8.6-84.9-84.9 8.61zm88.2 72l-75.26 7.57-7.63-75.26 75.26-7.63 7.63 75.32zm-1.29-175.81l11.65-1.18-6.67 50.28-11.55 1.17 6.57-50.27z"/><path d="M571.721 48.87l20-32.13 11.18-1.14-19.34 32.07"/><path d="M586.002 26.45l11.24-1.14 16.14 22.92-11.48 1.16-15.9-22.94z"/><use xlink:href="#K"/><path d="M543.211-14.14l8.6 84.9 84.9-8.6-8.6-84.9-84.9 8.6zm88.2 72l-75.26 7.62-7.63-75.28 75.26-7.63 7.63 75.29z"/><use xlink:href="#L"/><use xlink:href="#M"/><path d="M660.33 130.2l11.24-1.13L687.71 152l-11.48 1.17-15.9-22.97zm7.18-12.57c.6 1.8 4.47 2.12 8.65.73s7.09-4 6.49-5.78-4.48-2.13-8.66-.73-7.08 3.97-6.48 5.78zm-49.949-28.01l8.6 84.9 84.9-8.61-8.6-84.91-84.9 8.62zm88.2 72l-75.26 7.63-7.63-75.25 75.26-7.63 7.63 75.25zm-1.291-175.8l11.65-1.19-6.68 50.28-11.54 1.17 6.57-50.26z"/><path d="M698.08 36.06l20-32.13 11.18-1.13-19.33 32.06"/><path d="M712.34 13.64l11.24-1.14 16.14 22.92-11.48 1.16-15.9-22.94zm7.19-12.58c.59 1.8 4.47 2.13 8.65.73s7.08-4 6.48-5.77-4.47-2.13-8.65-.73-7.09 3.97-6.48 5.77zm-49.96-28.01L678.18 58l84.9-8.6-8.61-84.9-84.9 8.55zm88.2 72l-75.25 7.63-7.64-75.25 75.26-7.63 7.63 75.25zm21.04 44.52l11.66-1.18-6.68 50.27-11.54 1.17 6.56-50.26z"/><path d="M772.43 139.82l20-32.14 11.19-1.13-19.33 32.06"/><path d="M786.689 117.4l11.24-1.14 16.14 22.92-11.48 1.16-15.9-22.94zm7.18-12.58c.6 1.8 4.48 2.12 8.66.73s7.08-4 6.48-5.78-4.47-2.12-8.65-.73-7.09 3.96-6.49 5.78zM743.92 76.81l8.61 84.9 84.9-8.61-8.61-84.9-84.9 8.61zm88.2 72l-75.26 7.63-7.63-75.26 75.26-7.63 7.63 75.26zM830.83-27l11.65-1.19-6.68 50.29-11.54 1.17L830.83-27z"/><path d="M824.449 23.25l20-32.13 11.18-1.12-19.33 32.05"/><path d="M838.709.83l11.23-1.14 16.14 22.92-11.48 1.16L838.709.83zM795.93-39.75l8.61 84.9 84.9-8.6-8.6-84.9-84.91 8.6zm88.21 72l-75.26 7.63-7.63-75.26L876.51-43l7.63 75.25zm21.031 44.51l11.66-1.18-6.68 50.27-11.54 1.15 6.56-50.24z"/><path d="M898.801 127l20-32.13 11.2-1.13-19.33 32.07"/><path d="M913.061 104.59l11.23-1.14 16.15 22.91-11.44 1.17-15.94-22.94zM920.24 92c.6 1.8 4.481 2.12 8.661.73s7.08-4 6.48-5.78-4.471-2.12-8.651-.73-7.09 3.99-6.49 5.78zm-49.959-28l8.61 84.9 84.9-8.61-8.6-84.9-84.91 8.61zm88.2 72l-75.25 7.63-7.63-75.3 75.26-7.62 7.62 75.29zm-1.29-175.8l11.66-1.2-6.68 50.29-11.54 1.17 6.56-50.26z"/><path d="M950.811 10.44l20-32.13 11.19-1.13-19.34 32.06"/><path d="M965.07-12l11.24-1.14L992.45 9.8 981 11l-15.93-23zm-42.769-40.56l8.61 84.9 84.899-8.61-8.61-84.9-84.899 8.61zm88.199 72L935.241 27l-7.63-75.26 75.259-7.63 7.63 75.33zM1031.54 64l11.65-1.18-6.67 50.28-11.52 1.12 6.54-50.22z"/><path d="M1025.16 114.2l20-32.13 11.18-1.14L1037 113"/><path d="M1039.42 91.78l11.24-1.14 16.14 22.92-11.48 1.16-15.9-22.94zm7.18-12.58c.6 1.8 4.47 2.12 8.66.73s7.08-4 6.48-5.78-4.48-2.12-8.65-.73-7.09 3.98-6.49 5.78zm-49.95-28.01l8.6 84.9 84.9-8.6-8.6-84.9-84.9 8.6zm88.2 72l-75.26 7.62-7.59-75.28 75.26-7.64 7.59 75.3zm-36.19-188.56l8.6 84.9 84.9-8.61-8.6-84.9-84.9 8.61zm88.2 72l-75.26 7.63L1054-61l75.26-7.63 7.6 75.26zm21.04 44.51l11.65-1.14-6.67 50.28-11.54 1.17 6.56-50.31z"/><path d="M1151.52 101.39l20-32.13 11.19-1.14-19.33 32.07"/><path d="M1165.78 79l11.22-1.17 16.14 22.92-11.48 1.16L1165.78 79zm7.22-12.61c.6 1.8 4.48 2.13 8.66.73s7.08-4 6.48-5.77-4.47-2.13-8.65-.73-7.13 3.97-6.49 5.77zm-50-28.01l8.6 84.9 84.9-8.6-8.6-84.9-84.9 8.6zm88.19 72L1136 118l-7.63-75.25 75.26-7.63 7.56 75.26zM1175-78.18l8.6 84.9 84.9-8.6-8.6-84.9-84.9 8.6zm88.2 72L1188 1.41l-7.63-75.26 75.26-7.62 7.57 75.29zm21.07 44.51l11.65-1.18-6.68 50.28-11.54 1.17 6.57-50.27z"/><path d="M1277.89 88.58l20-32.13 11.19-1.13-19.33 32.06"/><path d="M1292.15 66.16l11.23-1.16 16.15 22.92-11.48 1.16-15.9-22.92zm7.18-12.58c.6 1.8 4.47 2.13 8.65.73s7.09-4 6.49-5.78-4.48-2.12-8.66-.72-7.08 3.97-6.48 5.77zm-49.96-28.01l8.61 84.9 84.9-8.59-8.61-84.88-84.9 8.57zm88.2 72l-75.25 7.63-7.63-75.26 75.31-7.66 7.57 75.29zm73.06-72.04l11.65-1.19-6.67 50.28-11.54 1.17 6.56-50.26z"/><path d="M1404.25 75.77l20-32.13 11.18-1.13-19.33 32.06"/><path d="M1418.51 53.35l11.24-1.14 16.14 22.92-11.48 1.16-15.9-22.94zm7.18-12.58c.6 1.8 4.47 2.13 8.66.73s7.08-4 6.48-5.77-4.47-2.13-8.65-.73-7.09 4-6.49 5.77zm-49.95-28l8.6 84.9 84.9-8.61-8.6-84.9-84.9 8.61zm88.2 72l-75.27 7.62-7.62-75.25 75.25-7.63 7.64 75.26zM1537 12.72l11.66-1.18-6.66 50.27-11.57 1.19 6.57-50.28z"/><path d="M1530.61 63l20-32.13 11.19-1.13-19.33 32.06"/><path d="M1544.87 40.54l11.24-1.13 16.14 22.91-11.48 1.17-15.9-22.95zm7.18-12.54c.6 1.8 4.48 2.12 8.66.73s7.08-4 6.48-5.78-4.47-2.12-8.65-.73-7.09 3.94-6.49 5.78zM1502.1 0l8.61 84.9 84.9-8.61L1587-8.65 1502.1 0zm88.2 72l-75.3 7.55-7.63-75.26 75.26-7.63L1590.3 72zm73.06-72.09L1675-1.27 1668.33 49l-11.54 1.17 6.57-50.26z"/><path d="M1657 50.15L1677 18l11.18-1.13L1668.82 49"/><path d="M1671.24 27.73l11.24-1.13 16.14 22.91-11.48 1.17-15.9-22.95zm7.18-12.58c.6 1.8 4.47 2.13 8.65.73s7.08-4 6.49-5.78-4.48-2.12-8.66-.72-7.08 3.97-6.48 5.77zm-49.96-28l8.6 84.9 84.9-8.6-8.6-84.9-84.9 8.6zm88.2 72l-75.26 7.62-7.63-75.26 75.23-7.66 7.66 75.3zm73.06-72.05l11.65-1.18-6.67 50.27-11.54 1.17 6.56-50.26z"/><path d="M1783.34 37.35l20-32.14 11.19-1.13-19.33 32.07"/><path d="M1797.6 14.93l11.24-1.14L1825 36.7l-11.48 1.17-15.92-22.94zm7.18-12.58c.6 1.8 4.48 2.13 8.66.73s7.08-4 6.48-5.78-4.47-2.12-8.65-.73-7.09 3.98-6.49 5.78zm-49.95-28.01l8.6 84.9 84.9-8.61-8.6-84.9-84.9 8.61zm88.2 72l-75.26 7.63-7.62-75.26L1835.4-29l7.63 75.34z"/><use xlink:href="#N"/><path d="M1909.7 24.54l20-32.13 11.18-1.14-19.33 32.07m-40.36-61.81l8.61 84.9 84.9-8.6-8.61-84.9-84.9 8.6zm88.2 72l-75.26 7.63-7.63-75.26 75.26-7.62 7.63 75.25zM-23.5 310.81l11.24-1.14 16.14 22.92-11.48 1.16-15.9-22.94z"/><use xlink:href="#O"/><path d="M43 386.74l11.66-1.18-6.68 50.27L36.4 437l6.6-50.26z"/><path d="M36.58 437l20-32.14 11.19-1.13-19.34 32.06"/><path d="M50.84 414.57l11.24-1.14 16.14 22.91-11.48 1.17-15.9-22.94zM58 402c.6 1.8 4.48 2.13 8.66.73s7.08-4 6.48-5.78-4.47-2.12-8.65-.72-7.07 3.96-6.49 5.77zM8.07 374l8.61 84.9 84.9-8.6L93 365.38 8.07 374zm88.2 72L21 453.57l-7.63-75.26 75.25-7.62L96.27 446zm-1.271-175.82l11.63-1.18-6.63 50.27-11.55 1.17 6.55-50.26z"/><path d="M88.6 320.42l20-32.13 11.19-1.13-19.34 32.06"/><path d="M102.859 298l11.24-1.14 16.14 22.92-11.48 1.16-15.9-22.94zm7.14-12.57c.6 1.8 4.48 2.12 8.66.72s7.08-4 6.48-5.77-4.47-2.13-8.65-.73-7.05 3.97-6.49 5.78zM60.09 257.42l8.6 84.9 84.9-8.61-8.6-84.9-84.9 8.61zm88.2 72L73 337l-7.6-75.25 75.26-7.63 7.63 75.3zm21.04 44.51l11.67-1.18-6.7 50.25-11.54 1.17 6.57-50.24z"/><path d="M163 424.18l20-32.13 11.18-1.14L174.79 423"/><use xlink:href="#P"/><path d="M184.389 389.18c.6 1.8 4.47 2.12 8.65.73s7.08-4 6.49-5.78-4.48-2.12-8.66-.73-7.08 3.98-6.48 5.78zm-49.959-28.01l8.61 84.9 84.9-8.6-8.6-84.9-84.91 8.6zm88.2 72l-75.25 7.63-7.63-75.26 75.25-7.66 7.63 75.29zm-1.289-175.8l11.66-1.18-6.68 50.27-11.54 1.17 6.56-50.26z"/><path d="M215.002 307.61l20-32.13 11.19-1.13-19.33 32.06"/><path d="M229.221 285.2l11.24-1.14 16.14 22.94-11.48 1.17-15.9-22.97zm7.18-12.58c.6 1.8 4.47 2.12 8.66.73s7.08-4 6.48-5.78-4.47-2.12-8.65-.73-7.09 3.97-6.49 5.78zm-49.95-28.01l8.61 84.9 84.94-8.61-8.65-84.9-84.9 8.61zm88.2 72l-75.26 7.63-7.63-75.26 75.24-7.67 7.65 75.3zm21.04 44.51l11.65-1.18-6.67 50.28-11.54 1.17 6.56-50.27z"/><path d="M289.311 411.37l20-32.13 11.18-1.14-19.32 32.07"/><path d="M303.57 389l11.24-1.14L331 410.73l-11.48 1.17-15.95-22.9zm7.18-12.63c.6 1.8 4.47 2.13 8.66.73s7.08-4 6.48-5.78-4.47-2.12-8.65-.73-7.09 3.98-6.49 5.78zm-49.949-28.01l8.61 84.9 84.9-8.6-8.61-84.9-84.9 8.6zm88.2 72l-75.26 7.64-7.63-75.25 75.26-7.63 7.63 75.24z"/><use xlink:href="#Q"/><path d="M341.32 294.8l20-32.13 11.19-1.13-19.34 32.06"/><path d="M355.59 272.39l11.23-1.14L383 294.16l-11.49 1.17-15.92-22.94zm7.18-12.58c.6 1.8 4.47 2.12 8.65.73s7.08-4 6.49-5.78-4.48-2.12-8.66-.73-7.08 3.97-6.48 5.78z"/><use xlink:href="#R"/><path d="M422.061 348.31l11.65-1.18-6.71 50.28-11.54 1.17 6.6-50.27z"/><path d="M415.672 398.56l20-32.13 11.19-1.14-19.33 32.07"/><path d="M429.941 376.14l11.23-1.14 16.14 22.92-11.48 1.16-15.89-22.94zm7.171-12.58c.6 1.8 4.48 2.13 8.66.73s7.08-4 6.48-5.78-4.47-2.12-8.65-.72-7.09 3.97-6.49 5.77zm-49.952-28.01l8.6 84.9 84.9-8.6-8.6-84.9-84.9 8.6zm88.2 72l-75.26 7.62-7.63-75.25 75.26-7.63 7.63 75.26zm-1.29-175.8l11.66-1.18-6.68 50.28-11.54 1.15 6.56-50.25z"/><path d="M467.689 282l20-32.13 11.18-1.13-19.34 32.06"/><path d="M482 259.58l11.24-1.14 16.14 22.91-11.48 1.17-15.9-22.94zm7.129-12.58c.6 1.8 4.47 2.12 8.66.73s7.08-4 6.48-5.78-4.47-2.12-8.65-.73-7.09 3.98-6.49 5.78zm-49.959-28l8.61 84.9 84.9-8.6-8.61-84.9-84.9 8.6zm88.2 72l-75.25 7.62-7.63-75.25 75.26-7.63 7.62 75.26zm21.051 44.51l11.65-1.19-6.67 50.28-11.54 1.17 6.56-50.26z"/><path d="M542.002 385.75l20-32.13 11.18-1.13-19.32 32.06"/><path d="M556.301 363.33l11.24-1.14 16.14 22.92-11.48 1.16-15.9-22.94zm7.17-12.58c.6 1.8 4.48 2.13 8.66.73s7.08-4 6.48-5.78-4.47-2.12-8.65-.72-7.09 4.02-6.49 5.77zm-49.94-28l8.6 84.9 84.87-8.65-8.6-84.9-84.87 8.65zm88.19 72l-75.25 7.63-7.63-75.26 75.26-7.63 7.62 75.26zm-1.29-175.81l11.66-1.18-6.68 50.24-11.54 1.17 6.56-50.23z"/><path d="M594.051 269.19l20-32.13 11.19-1.14-19.34 32.08"/><path d="M608.311 246.77l11.24-1.14 16.14 22.92-11.48 1.16-15.9-22.94zm7.179-12.58c.6 1.8 4.481 2.13 8.661.73s7.08-4 6.48-5.77-4.471-2.13-8.651-.73-7.09 3.97-6.49 5.77zm-49.949-28.01l8.6 84.9 84.9-8.6-8.61-84.9-84.89 8.6zm88.2 72l-75.26 7.63-7.63-75.26 75.26-7.62 7.63 75.25zm21.04 44.52l11.65-1.18-6.67 50.27-11.54 1.21 6.56-50.3z"/><path d="M668.4 372.94l20-32.13 11.19-1.13-19.34 32.06"/><path d="M682.66 350.52l11.24-1.14L710 372.3l-11.48 1.16-15.86-22.94zm7.18-12.52c.6 1.8 4.47 2.12 8.65.72s7.09-4 6.49-5.77-4.47-2.13-8.65-.73-7.09 3.92-6.49 5.78zm-49.949-28.06l8.6 84.9 84.9-8.61-8.61-84.9-84.89 8.61zm88.2 72l-75.26 7.63-7.63-75.26 75.26-7.63 7.63 75.26zM726.8 206.13l11.651-1.13-6.67 50.28-11.551 1.17 6.57-50.32z"/><path d="M720.42 256.38l20-32.13 11.18-1.14-19.33 32.07"/><path d="M734.67 234l11.24-1.14 16.14 22.92-11.48 1.16-15.9-22.94zm7.19-12.62c.6 1.8 4.47 2.13 8.65.73s7.08-4 6.49-5.78-4.48-2.12-8.66-.73-7.08 3.98-6.48 5.78zm-49.96-28.01l8.61 84.9 84.9-8.6-8.61-84.9-84.9 8.6zm88.2 72L704.84 273l-7.63-75.25 75.26-7.63 7.63 75.25zm21.04 44.52l11.65-1.18-6.67 50.29-11.55 1.17 6.57-50.28z"/><path d="M794.76 360.13l20-32.13 11.19-1.13-19.33 32.06"/><path d="M809 337.71l11.23-1.13 16.15 22.91-11.49 1.16L809 337.71zm7.201-12.57c.6 1.8 4.47 2.12 8.66.73s7.08-4 6.48-5.78-4.48-2.12-8.65-.73-7.09 3.97-6.49 5.78zm-49.951-28.01l8.61 84.9 84.9-8.61-8.6-84.9-84.91 8.61zm88.2 72l-75.26 7.63-7.62-75.26 75.26-7.63 7.62 75.26zm-1.288-175.81l11.65-1.18-6.67 50.28-11.54 1.17 6.56-50.27z"/><path d="M846.781 243.57l20-32.13 11.22-1.13-19.33 32.06"/><path d="M861.002 221.15l11.28-1.15 16.14 22.92-11.48 1.16-15.94-22.93zm7.219-12.58c.6 1.8 4.47 2.13 8.66.73s7.08-4 6.48-5.77-4.47-2.13-8.65-.73-7.09 3.97-6.49 5.77zm-49.95-28l8.6 84.9 84.9-8.6-8.6-84.9-84.9 8.6zm88.2 72l-75.26 7.63-7.63-75.27 75.26-7.62 7.63 75.26zm21.041 44.51l11.65-1.18-6.68 50.27-11.48 1.17 6.51-50.26z"/><path d="M921.133 347.32l20-32.13 11.18-1.13-19.31 32.06"/><path d="M935.393 324.91l11.24-1.14 16.14 22.91-11.48 1.17-15.9-22.94zm7.179-12.58c.6 1.8 4.47 2.12 8.65.73s7.09-4 6.49-5.78-4.48-2.12-8.66-.73-7.05 3.97-6.48 5.78zm-49.951-28.01l8.6 84.9 84.9-8.6-8.6-84.9-84.9 8.6zm88.2 72l-75.26 7.63-7.63-75.26 75.26-7.69 7.63 75.32zm-1.291-175.8l11.65-1.19-6.68 50.28-11.5 1.17 6.53-50.26z"/><path d="M973.141 230.76l20-32.13 11.189-1.13-19.329 32.06" stroke-linecap="round"/><path d="M987.41 208.34l11.23-1.14 16.14 22.92-11.48 1.16-15.89-22.94zm7.17-12.58c.6 1.8 4.48 2.13 8.66.73s7.08-4 6.48-5.77-4.47-2.13-8.65-.73-7.07 4.01-6.49 5.77zm-49.949-28.01l8.61 84.9 84.899-8.6-8.6-84.9-84.909 8.6zm88.199 72l-75.259 7.62-7.63-75.25 75.259-7.63 7.63 75.26zm21.04 44.52l11.66-1.18-6.68 50.27-11.54 1.17 6.56-50.26z"/><path d="M1047.49 334.52l20-32.14 11.19-1.13-19.33 32.07"/><path d="M1061.75 312.1L1073 311l16.14 22.92-11.49 1.08-15.9-22.9zm7.18-12.58c.6 1.8 4.48 2.12 8.66.73s7.08-4 6.48-5.78-4.47-2.12-8.65-.73-7.09 3.98-6.49 5.78zM1019 271.51l8.61 84.9 84.9-8.6-8.6-84.9-84.91 8.6zm88.2 72l-75.26 7.63-7.63-75.26 75.26-7.62 7.63 75.25zm-1.31-175.8l11.65-1.18-6.68 50.27-11.54 1.2 6.57-50.29z"/><path d="M1099.51 218l20-32.13 11.18-1.13-19.33 32.06"/><path d="M1113.77 195.53l11.23-1.13 16.14 22.91-11.48 1.17-15.89-22.95zM1121 183c.6 1.8 4.47 2.13 8.65.73s7.08-4 6.49-5.77-4.48-2.13-8.66-.73-7.13 3.92-6.48 5.77zm-50-28l8.61 84.9 84.9-8.6-8.6-84.9L1071 155zm88.21 72l-75.26 7.63-7.63-75.25 75.26-7.63 7.63 75.25zm21.03 44.46l11.65-1.18-6.67 50.28-11.54 1.17 6.56-50.27z"/><path d="M1173.86 321.71l20-32.13 11.18-1.14-19.33 32.07"/><path d="M1188.12 299.29l11.23-1.13 16.14 22.91-11.49 1.17-15.88-22.95zm7.18-12.58c.6 1.8 4.47 2.13 8.65.73s7.09-4 6.49-5.78-4.47-2.12-8.65-.73-7.09 3.98-6.49 5.78zm-49.96-28.01l8.61 84.9 84.9-8.61-8.61-84.9-84.9 8.61zm88.2 72l-75.26 7.63-7.63-75.33 75.26-7.63 7.63 75.33zm-1.29-175.8l11.65-1.18-6.67 50.28-11.54 1.17 6.56-50.27z"/><path d="M1225.87 205.14l20-32.13 11.19-1.13-19.33 32.06"/><path d="M1240.13 182.72l11.24-1.13 16.14 22.91-11.51 1.16-15.87-22.94zm7.18-12.57c.6 1.8 4.48 2.12 8.66.73s7.08-4 6.48-5.78-4.47-2.12-8.65-.73-7.09 3.97-6.49 5.78zm-49.95-28.01L1206 227l84.9-8.6-8.6-84.9-84.94 8.64zm88.2 72l-75.26 7.63-7.62-75.26 75.25-7.63 7.63 75.26zm21.04 44.51l11.65-1.18-6.68 50.28-11.57 1.17 6.6-50.27z"/><path d="M1300.22 308.9l20-32.13 11.18-1.13-19.33 32.06"/><path d="M1314.48 286.48l11.24-1.14 16.14 22.92-11.48 1.16-15.9-22.94zm7.18-12.58c.6 1.8 4.47 2.12 8.66.73s7.08-4 6.48-5.78-4.47-2.12-8.65-.73-7.09 3.98-6.49 5.78zm-49.95-28.01l8.6 84.9 84.9-8.6-8.6-84.9-84.9 8.6zm88.2 72l-75.26 7.62-7.65-75.28 75.26-7.63 7.65 75.29zm-1.3-175.8l11.66-1.18-6.68 50.28-11.54 1.17 6.56-50.27z"/><path d="M1352.23 192.33l20-32.13 11.19-1.13-19.33 32.07"/><path d="M1366.49 169.92l11.24-1.14 16.14 22.91-11.48 1.17-15.9-22.94zm7.18-12.58c.6 1.8 4.48 2.12 8.66.73s7.08-4 6.48-5.78-4.47-2.12-8.65-.73-7.09 3.97-6.49 5.78zm-49.95-28.01l8.61 84.9 84.9-8.61-8.61-84.9-84.9 8.61zm88.2 72l-75.26 7.63-7.66-75.3 75.26-7.63 7.66 75.3zm21.08 44.51l11.66-1.18-6.68 50.28-11.54 1.17 6.56-50.27z"/><path d="M1426.58 296.09l20-32.13 11.19-1.13-19.33 32.06"/><path d="M1440.84 273.67l11.24-1.14 16.14 22.92-11.48 1.16-15.9-22.94zm7.16-12.58c.6 1.8 4.48 2.13 8.66.73s7.08-4 6.48-5.77-4.47-2.13-8.65-.73-7.07 3.97-6.49 5.77zm-49.93-28.01l8.61 84.9 84.9-8.6-8.61-84.9-84.9 8.6zm88.2 72l-75.27 7.6-7.63-75.26 75.25-7.63 7.65 75.29zm-1.27-175.8l11.65-1.18-6.65 50.28-11.55 1.16 6.55-50.26z"/><path d="M1478.6 179.53l20-32.13 11.19-1.14-19.34 32.07"/><path d="M1492.86 157.11l11.24-1.11 16.14 22.92-11.48 1.16-15.9-22.97zm7.14-12.58c.6 1.8 4.47 2.12 8.66.73s7.08-4 6.48-5.78-4.47-2.12-8.65-.73-7.05 3.98-6.49 5.78zm-49.91-28.01l8.6 84.9 84.9-8.6-8.6-84.9-84.9 8.6zm88.19 72l-75.28 7.59-7.63-75.26 75.26-7.63 7.65 75.3zm21.05 44.48l11.64-1.19-6.67 50.28-11.54 1.17 6.57-50.26z"/><path d="M1552.94 283.28l20-32.13 11.19-1.13-19.33 32.06"/><path d="M1567.21 260.86l11.23-1.14 16.14 22.92-11.48 1.16-15.89-22.94zm7.18-12.58c.6 1.8 4.47 2.13 8.65.73s7.08-4 6.49-5.77-4.48-2.13-8.66-.73-7.09 3.97-6.48 5.77zm-49.96-28l8.6 84.9 84.9-8.61-8.6-84.9-84.9 8.61zm88.2 72l-75.26 7.63-7.63-75.26L1605 217l7.63 75.28zm-1.29-175.81l11.65-1.18-6.67 50.28-11.54 1.17 6.56-50.27z"/><path d="M1605 166.72l20-32.13 11.18-1.14-19.32 32.07"/><path d="M1619.22 144.3l11.24-1.14 16.14 22.92-11.48 1.16-15.9-22.94zm7.18-12.58c.6 1.8 4.47 2.13 8.65.73s7.09-4 6.49-5.78-4.48-2.12-8.65-.73-7.09 3.98-6.49 5.78zm-49.95-28.01l8.61 84.9L1670 180l-8.61-84.9-84.94 8.61zm88.2 72l-75.26 7.63-7.63-75.25 75.26-7.63 7.63 75.25zm21.04 44.52l11.65-1.18-6.67 50.27-11.54 1.17 6.56-50.26z"/><path d="M1679.31 270.47l20-32.13 11.18-1.13-19.33 32.06"/><path d="M1693.57 248.05l11.24-1.14 16.19 22.92-11.53 1.17-15.9-22.95zm7.18-12.57c.6 1.8 4.47 2.12 8.65.73s7.09-4 6.49-5.78-4.47-2.12-8.65-.73-7.09 3.97-6.49 5.78zm-49.95-28.01l8.61 84.9 84.9-8.6-8.61-84.9-84.9 8.6zm88.2 72l-75.26 7.63-7.63-75.26 75.26-7.63 7.63 75.26zm-1.29-175.81l11.65-1.18-6.68 50.28-11.54 1.17 6.57-50.27z"/><path d="M1731.32 153.91l20-32.13 11.19-1.14-19.33 32.07"/><path d="M1745.59 131.49l11.23-1.14 16.18 22.92-11.49 1.16-15.92-22.94zm7.18-12.58c.6 1.8 4.47 2.13 8.65.73s7.08-4 6.48-5.78-4.47-2.12-8.65-.73-7.09 3.98-6.48 5.78zm-49.96-28.01l8.6 84.9 84.9-8.6-8.6-84.9-84.9 8.6zm88.2 72l-75.26 7.63-7.62-75.26 75.25-7.63 7.63 75.26zm21.04 44.52l11.66-1.18-6.71 50.27-11.54 1.17 6.59-50.26z"/><path d="M1805.67 257.66l20-32.13 11.19-1.13-19.33 32.06"/><path d="M1819.93 235.24l11.24-1.13 16.14 22.89-11.48 1.17-15.9-22.93zm7.18-12.57c.6 1.8 4.48 2.12 8.66.73s7.08-4 6.48-5.78-4.47-2.12-8.65-.73-7.09 3.97-6.49 5.78zm-49.95-28.01l8.6 84.9 84.9-8.61-8.61-84.9-84.89 8.61zm88.2 72l-75.26 7.63-7.63-75.29 75.26-7.63 7.63 75.29zm-1.29-175.81l11.66-1.18-6.68 50.33-11.54 1.17 6.56-50.32z"/><path d="M1857.69 141.1l20-32.13 11.18-1.14-19.33 32.07"/><path d="M1872 118.68l11.24-1.14 16.14 22.92-11.48 1.16-15.9-22.94zm7.13-12.58c.6 1.8 4.47 2.12 8.65.73s7.09-4 6.49-5.78-4.48-2.12-8.66-.73-7.08 3.98-6.48 5.78z"/><use xlink:href="#S"/><path d="M1903.52 181.85l8.61 84.9 84.9-8.6-8.61-84.9-84.9 8.6zm88.2 72l-75.25 7.63-7.63-75.25 75.26-7.63 7.62 75.25zM461.51 439.31l8.6 84.9 84.9-8.6-8.6-84.9-84.9 8.6zm88.19 72l-75.25 7.63-7.63-75.26 75.26-7.68 7.62 75.31zm73.071-72.05l11.65-1.18-6.68 50.27-11.54 1.17 6.57-50.26zm-34.9-12.76l8.61 84.9 84.9-8.61-8.61-84.9-84.9 8.61zm88.2 72l-75.25 7.63-7.63-75.26 75.26-7.63 7.62 75.26zm73.059-72.05l11.65-1.18-6.67 50.28-11.54 1.17 6.56-50.27zm15.06 15.25c.6 1.8 4.47 2.12 8.65.73s7.09-4 6.49-5.78-4.48-2.12-8.66-.73-7.08 3.98-6.48 5.78zm-49.95-28.01l8.6 84.9 84.9-8.6-8.6-84.9-84.9 8.6zm88.2 72l-75.26 7.62-7.63-75.31 75.25-7.63 7.64 75.32zm73.052-72.05l11.66-1.18-6.68 50.28-11.54 1.17 6.56-50.27z"/><path d="M869.111 463.89l20-32.13 11.19-1.14-19.3 32.07"/><path d="M883.371 441.47l11.24-1.14 16.14 22.92-11.48 1.16-15.9-22.94zm7.181-12.58c.6 1.8 4.48 2.13 8.66.73s7.08-4 6.48-5.78-4.47-2.12-8.65-.72-7.04 3.97-6.49 5.77zm-49.95-28.01l8.61 84.9 84.9-8.6-8.61-84.9-84.9 8.6zm88.2 72l-75.26 7.62-7.63-75.25 75.26-7.63 7.63 75.26zm73.058-72.05l11.65-1.18-6.68 50.28-11.541 1.17 6.571-50.27z"/><path d="M995.469 451.08l20.001-32.13 11.19-1.13-19.33 32.06"/><path d="M1009.74 428.66l11.24-1.14 16.14 22.92-11.48 1.16-15.9-22.94zm7.18-12.58c.6 1.8 4.47 2.13 8.65.73s7.08-4 6.48-5.77-4.47-2.13-8.65-.73-7.08 3.97-6.48 5.77zM967 388.07l8.6 84.9 84.9-8.6-8.6-84.9-84.9 8.6zm88.2 72l-75.25 7.63-7.63-75.26 75.25-7.63 7.63 75.26zm73.02-72.07l11.65-1.19-6.67 50.28-11.54 1.17 6.56-50.26z"/><path d="M1121.84 438.27l20-32.13L1153 405l-19.32 32.06"/><path d="M1136.1 415.85l11.24-1.14 16.14 22.92-11.48 1.16-15.9-22.94zm7.18-12.58c.6 1.8 4.47 2.13 8.65.73s7.09-4 6.49-5.77-4.47-2.13-8.65-.73-7.1 3.97-6.49 5.77zm-49.95-28l8.6 84.9 84.9-8.61-8.6-84.9-84.9 8.61zm88.2 72l-75.26 7.63-7.63-75.26 75.26-7.64 7.63 75.27zm73.05-72.05l11.66-1.18-6.68 50.27-11.56 1.17 6.58-50.26z"/><path d="M1248.2 425.46l20-32.13 11.18-1.13-19.38 32.06"/><path d="M1262.46 403l11.24-1.14 16.14 22.92-11.48 1.22-15.9-23zm7.18-12.53c.6 1.8 4.47 2.12 8.66.72s7.08-4 6.48-5.77-4.47-2.13-8.65-.73-7.13 3.97-6.49 5.78zm-49.95-28.02l8.61 84.9 84.9-8.6-8.61-84.9-84.9 8.6zm88.2 72l-75.26 7.64-7.63-75.3 75.26-7.62 7.63 75.28zm73.11-72.04l11.65-1.18-6.68 50.27-11.54 1.17 6.57-50.26z"/><path d="M1374.57 412.65l20-32.13 11.18-1.13-19.33 32.06"/><path d="M1388.83 390.23l11.23-1.13 16.15 22.9-11.48 1.17-15.9-22.94zm7.17-12.57c.6 1.8 4.47 2.12 8.65.73s7.08-4 6.49-5.78-4.48-2.12-8.66-.73-7.07 3.97-6.48 5.78zm-49.95-28.01l8.61 84.9 84.9-8.6-8.6-84.9-84.91 8.6zm88.2 72l-75.25 7.59-7.63-75.24 75.26-7.63 7.62 75.28zm73.06-72.05l11.65-1.18-6.67 50.27-11.54 1.17 6.56-50.26z"/><path d="M1500.93 399.85l20-32.14 11.18-1.13-19.33 32.06"/><path d="M1515.19 377.43l11.24-1.14 16.14 22.91-11.48 1.16-15.9-22.93zm7.18-12.58c.6 1.8 4.48 2.13 8.66.73s7.08-4 6.48-5.78-4.47-2.12-8.65-.72-7.09 3.97-6.49 5.77zm-49.95-28.01l8.6 84.9 84.9-8.61-8.6-84.9-84.9 8.61zm88.2 72l-75.26 7.63-7.63-75.26 75.26-7.63 7.63 75.26zm-13.85 31.76l8.6 84.9 84.9-8.61-8.6-84.9-84.9 8.61zm88.2 72l-75.26 7.63-7.63-75.26 75.26-7.63 7.63 75.26zm-1.3-175.81l11.66-1.18-6.68 50.28-11.54 1.16 6.56-50.26z"/><path d="M1627.29 387l20-32.13 11.19-1.14-19.33 32.07"/><path d="M1641.55 364.62l11.24-1.14 16.14 22.92-11.48 1.16-15.9-22.94zm7.18-12.62c.6 1.8 4.48 2.12 8.66.73s7.08-4 6.48-5.78-4.47-2.12-8.65-.73-7.09 4.02-6.49 5.78zm-49.95-28l8.6 84.9 84.9-8.6-8.6-84.9-84.9 8.6zm88.22 72l-75.25 7.63-7.63-75.26 75.26-7.62L1687 396zm21 44.55l11.65-1.19-6.65 50.28-11.54 1.17 6.54-50.26zm-34.87-12.76l8.61 84.9 84.9-8.61-8.6-84.9-84.91 8.61zm88.2 72l-75.26 7.63-7.63-75.26 75.26-7.63 7.63 75.26zM1760 324l11.65-1.18-6.65 50.26-11.55 1.17L1760 324z"/><path d="M1753.66 374.23l20-32.13 11.18-1.14L1765.5 373"/><path d="M1767.92 351.81l11.23-1.14 16.15 22.92-11.48 1.16-15.9-22.94zm7.18-12.58c.6 1.8 4.47 2.12 8.66.73s7.08-4 6.48-5.78-4.48-2.12-8.65-.73-7.09 3.98-6.49 5.78zm-49.96-28.01l8.61 84.9 84.9-8.6-8.61-84.9-84.9 8.6zm88.2 72l-75.26 7.62-7.63-75.26 75.26-7.63 7.63 75.27zm21.05 44.52l11.65-1.18-6.68 50.27-11.54 1.17 6.57-50.26zm15.05 15.26c.6 1.8 4.48 2.12 8.66.73s7.08-4 6.48-5.78-4.47-2.12-8.65-.73-7.09 3.96-6.49 5.78zm-49.95-28l8.61 84.9 84.9-8.6-8.61-84.9-84.9 8.6zm88.2 72l-75.26 7.63-7.62-75.26 75.25-7.63 7.63 75.26zm-1.29-175.83l11.65-1.18-6.68 50.28-11.54 1.17 6.57-50.27z"/><path d="M1880 361.42l20-32.13 11.19-1.14-19.33 32.07"/><path d="M1894.28 339l11.24-1.14 16.14 22.92-11.48 1.16-15.9-22.94zm7.18-12.58c.6 1.8 4.48 2.13 8.66.73s7.08-4 6.48-5.78-4.47-2.12-8.65-.72-7.09 3.97-6.49 5.77zm-49.95-28.01l8.6 84.9 84.9-8.6-8.61-84.9-84.89 8.6zm88.2 72l-75.26 7.59-7.63-75.26 75.26-7.63 7.63 75.3z"/></g><path d="M1286.54 13.3l633.46.12V0h-620.9l-12.56 13.3z" fill="#d8444f"/><path d="M0 0V22.62L1277.39 23L1299.1 0H0Z" fill="#0d4d91"/><path d="M633.461 426.7l-633.46-.12V440h620.9l12.56-13.3z" fill="#d8444f"/><path d="M1920 440v-22.62L642.61 417l-21.71 23H1920z" fill="#0d4d91"/></g><defs><radialGradient id="A" cx="0" cy="0" r="1" gradientUnits="userSpaceOnUse" gradientTransform="translate(960 220) scale(960 220)"><stop stop-color="#0e4d91"/><stop offset="1" stop-color="#072749"/></radialGradient><clipPath id="B"><path fill="#fff" d="M0 0h1920v440H0z"/></clipPath><clipPath id="C"><path fill="#fff" d="M0 0h1920v440H0z"/></clipPath><path id="D" d="M20.63 166.42l11.65-1.18-6.67 50.28-11.54 1.17 6.56-50.27z"/><path id="E" d="M154.871 181.44l11.24-1.14 16.14 22.92-11.48 1.16-15.9-22.94z"/><path id="F" d="M206.891 64.88l11.24-1.14 16.14 22.91-11.48 1.17-15.9-22.94z"/><path id="G" d="M214.071 52.3c.6 1.8 4.48 2.12 8.66.73s7.08-4 6.48-5.78-4.47-2.12-8.65-.73-7.09 3.97-6.49 5.78z"/><path id="H" d="M267.002 191.05l20-32.13 11.19-1.13-19.33 32.06"/><path id="I" d="M399.72 128l11.66-1.18-6.68 50.27-11.54 1.17 6.56-50.26z"/><path id="J" d="M466.799 26.68c.6 1.8 4.47 2.12 8.66.73s7.08-4 6.48-5.78-4.48-2.12-8.65-.73-7.09 3.98-6.49 5.78z"/><path id="K" d="M593.16 13.87c.6 1.8 4.48 2.13 8.66.73s7.08-4 6.48-5.78-4.47-2.12-8.65-.72-7.09 3.97-6.49 5.77z"/><path id="L" d="M652.451 102.38l11.65-1.18-6.68 50.28-11.54 1.17 6.57-50.27z"/><path id="M" d="M646.07 152.62l20-32.13 11.18-1.13-19.33 32.06"/><path id="N" d="M1916.08-25.71l11.66-1.18-6.68 50.28-11.54 1.17 6.56-50.27z"/><path id="O" d="M-66.279 270.23l8.61 84.9 84.9-8.61-8.61-84.9-84.9 8.61zm88.2 72l-75.26 7.63-7.66-75.3 75.26-7.63 7.66 75.3z"/><path id="P" d="M177.209 401.75l11.23-1.14 16.14 22.92-11.48 1.16-15.89-22.94z"/><path id="Q" d="M347.711 244.56l11.65-1.18-6.68 50.27-11.54 1.17 6.57-50.26z"/><path id="R" d="M312.811 231.8l8.6 84.9 84.9-8.61-8.6-84.9-84.9 8.61zm88.2 72l-75.26 7.63-7.63-75.26 75.26-7.63 7.63 75.26z"/><path id="S" d="M1829.17 78.1l8.61 84.9 84.9-8.61-8.61-84.9-84.9 8.61zm88.2 72l-75.25 7.63-7.63-75.26 75.26-7.63 7.62 75.26z"/></defs></svg>